PathFileType	4	(X/Y/Z)	./resultDataOpenSim/trcMotMarkerGrf/sub10/qtm-13-04.trc
DataRate	CameraRate	NumFrames	NumMarkers	Units	OrigDataRate	OrigDataStartFrame	OrigNumFrames
250.000000	250.000000	14	24	m	250.000000	120	479
Frame#	Time	L.Toe.Tip			R.Toe.Tip			L.Ankle.Lat			R.Ankle.Lat			L.Ankle.Med			R.Ankle.Med			L.Heel			R.Heel			L.Knee.Lat			R.Knee.Lat			L.Knee.Med			R.Knee.Med			L.Thigh.Upper			R.Thigh.Upper			L.ASIS			R.ASIS			V.Sacral			L.Acromium			R.Acromium			C7			L.Elbow			R.Elbow			L.Wrist.Lat			R.Wrist.Lat
		X1	Y1	Z1	X2	Y2	Z2	X3	Y3	Z3	X4	Y4	Z4	X5	Y5	Z5	X6	Y6	Z6	X7	Y7	Z7	X8	Y8	Z8	X9	Y9	Z9	X10	Y10	Z10	X11	Y11	Z11	X12	Y12	Z12	X13	Y13	Z13	X14	Y14	Z14	X15	Y15	Z15	X16	Y16	Z16	X17	Y17	Z17	X18	Y18	Z18	X19	Y19	Z19	X20	Y20	Z20	X21	Y21	Z21	X22	Y22	Z22	X23	Y23	Z23	X24	Y24	Z24

120	0.476	-0.39314271	0.060149809	-0.20873863	-0.70103611	0.038807702	-0.064517127	-0.52628113	0.084258294	-0.22754075	-0.84756464	0.056221536	-0.037179232	-0.51015921	0.10808247	-0.14449873	-0.81977539	0.08346882	-0.11958248	-0.58522653	0.050989652	-0.17657065	-0.89263982	0.033936475	-0.089725205	-0.48148277	0.46802202	-0.25235305	-0.74851241	0.44788706	0.013984484	-0.46476009	0.45256711	-0.13234485	-0.73067328	0.44965477	-0.11458171	-0.60971395	0.83490581	-0.30960474	-0.68300925	0.85856294	0.067209302	-0.57046469	0.94712564	-0.23366397	-0.59236803	0.94868436	0.0048099972	-0.77871161	0.96536815	-0.14350527	-0.63758542	1.4257274	-0.25870693	-0.65346659	1.4075009	0.063492435	-0.72813697	1.4439977	-0.10012118	-0.76780047	1.1118429	-0.3393584	-0.68015951	1.0541046	0.12795842	-0.65619321	0.89283633	-0.35829743	-0.48094291	0.90139347	0.13302166
121	0.48	-0.37371061	0.061892858	-0.20645878	-0.70112119	0.03876766	-0.064557656	-0.50741556	0.082164747	-0.22568003	-0.84768266	0.056296364	-0.037207697	-0.49213272	0.10678391	-0.14268892	-0.81964619	0.083497341	-0.11965471	-0.56586078	0.047588447	-0.17473788	-0.89262275	0.034073129	-0.089903457	-0.47440114	0.46713198	-0.25181161	-0.74649491	0.44751271	0.01397193	-0.45773857	0.45215888	-0.13190658	-0.72857676	0.44927364	-0.11464856	-0.60330823	0.83418556	-0.30944581	-0.67850371	0.85768623	0.067620812	-0.56446375	0.946243	-0.23334938	-0.58721969	0.94758409	0.0053216658	-0.77377653	0.9642925	-0.1449749	-0.63192559	1.4245526	-0.25825408	-0.64763759	1.406361	0.064010545	-0.72233782	1.4429294	-0.099916183	-0.76362156	1.111282	-0.33890089	-0.67313077	1.0526574	0.12966624	-0.65365876	0.89156919	-0.35842836	-0.4718642	0.90193428	0.13167781
122	0.484	-0.35438716	0.063816119	-0.20404364	-0.70116398	0.038733788	-0.064576856	-0.48852049	0.080293619	-0.22379366	-0.84777121	0.056371869	-0.037321518	-0.47409177	0.10580528	-0.14095306	-0.8194756	0.083535783	-0.11968424	-0.54670897	0.044708686	-0.17277722	-0.89260629	0.034204364	-0.090012556	-0.46741017	0.46612252	-0.25131584	-0.74432603	0.44710947	0.013984015	-0.45087483	0.45159432	-0.13155072	-0.72639815	0.44890626	-0.11472753	-0.59681004	0.83342604	-0.30931768	-0.67389682	0.85682873	0.067900345	-0.55837782	0.94529531	-0.23306261	-0.58202583	0.94644002	0.00579311	-0.76853003	0.96318589	-0.14604254	-0.62624344	1.4233224	-0.25781029	-0.64178925	1.4051683	0.064515011	-0.71714113	1.4417508	-0.10055219	-0.75957084	1.1106597	-0.33858746	-0.6660705	1.0510975	0.1313254	-0.65111963	0.89026587	-0.35857056	-0.46282304	0.9024378	0.13031151
123	0.488	-0.33518022	0.065930799	-0.20152123	-0.70117757	0.038701158	-0.064584917	-0.46964335	0.078650152	-0.2219134	-0.84779614	0.056459977	-0.037494518	-0.45609925	0.1050748	-0.13927037	-0.8192657	0.083591781	-0.11969282	-0.52755109	0.042156707	-0.17086334	-0.89259135	0.034344973	-0.090124583	-0.46048889	0.46499797	-0.25085133	-0.74201012	0.44667604	0.014014039	-0.44412118	0.45088006	-0.13122472	-0.72413081	0.44852392	-0.11482098	-0.59016349	0.8326289	-0.30925115	-0.66932338	0.85598458	0.068215872	-0.5521466	0.94429498	-0.23279432	-0.57680142	0.94525376	0.0062299684	-0.76250031	0.96201804	-0.14615688	-0.62053093	1.4220438	-0.25737668	-0.63592997	1.4039101	0.065006771	-0.712116	1.4405125	-0.10139698	-0.75552965	1.1099888	-0.33828438	-0.65884892	1.049446	0.13271027	-0.64858143	0.88892912	-0.35873125	-0.45382498	0.90290417	0.12893372
124	0.492	-0.31612983	0.068238859	-0.19893692	-0.70119202	0.038643502	-0.064605828	-0.45083437	0.077245608	-0.2200821	-0.84776656	0.056565255	-0.037667947	-0.43824438	0.1045013	-0.13757685	-0.81904387	0.083659634	-0.11974086	-0.50809557	0.039673904	-0.16922841	-0.89257727	0.034497056	-0.090276403	-0.45360736	0.46377789	-0.25039832	-0.73957049	0.44621522	0.014039706	-0.43745395	0.45003415	-0.13089929	-0.72176956	0.44808748	-0.11493274	-0.5834459	0.83178592	-0.30923804	-0.66470108	0.85508481	0.068515615	-0.54580101	0.94324817	-0.23253326	-0.57156125	0.94402644	0.0066442954	-0.75561079	0.96077049	-0.14522934	-0.61479201	1.4207185	-0.25695434	-0.63006097	1.402574	0.065482622	-0.70689316	1.4392429	-0.10180254	-0.75122389	1.1092858	-0.33777352	-0.65146808	1.0477433	0.13378065	-0.64601862	0.88756526	-0.3588922	-0.44488172	0.90333144	0.12755451
125	0.496	-0.29730666	0.070742847	-0.19634002	-0.70122258	0.038545807	-0.064651912	-0.43213673	0.076079429	-0.21832349	-0.84769211	0.056688484	-0.037815077	-0.42058008	0.10405187	-0.13583955	-0.81884288	0.083716917	-0.11988818	-0.48829755	0.037183918	-0.16794041	-0.89256253	0.034658502	-0.090469047	-0.44676155	0.46248816	-0.24994457	-0.73702842	0.44574101	0.014051928	-0.43088215	0.44907708	-0.13057208	-0.71931155	0.44757384	-0.11505991	-0.57681395	0.83088047	-0.30923425	-0.65986954	0.8540634	0.068656527	-0.53943444	0.9421487	-0.23228511	-0.5663127	0.94275791	0.0070449874	-0.74836579	0.95942507	-0.14383454	-0.60903422	1.41934	-0.25654632	-0.62417809	1.401164	0.065936677	-0.70135316	1.4379367	-0.10164423	-0.74649894	1.1085524	-0.33700424	-0.64399396	1.0460074	0.13462864	-0.64339931	0.88617443	-0.35902575	-0.43600849	0.9037182	0.1261751
126	0.5	-0.27877318	0.073463783	-0.19376247	-0.70125444	0.038433837	-0.064707921	-0.4136034	0.075145648	-0.21663582	-0.84759059	0.056830486	-0.037945763	-0.40312072	0.10377819	-0.13411373	-0.81867815	0.083745157	-0.12014878	-0.46843218	0.034852666	-0.16683874	-0.89254442	0.03483025	-0.090681414	-0.43998986	0.46113651	-0.24950685	-0.73443072	0.44525519	0.014050441	-0.42441476	0.44801939	-0.13024604	-0.71676655	0.44700004	-0.11519328	-0.57033672	0.8298985	-0.30920421	-0.65483094	0.85293101	0.068641228	-0.53307136	0.94099032	-0.23206293	-0.5610526	0.94144979	0.0074303166	-0.74140386	0.95797642	-0.14273946	-0.60325481	1.4179019	-0.25615206	-0.61827907	1.3996965	0.066368988	-0.69549383	1.4365834	-0.10120367	-0.74159427	1.1077737	-0.33619115	-0.63648862	1.0442331	0.13536859	-0.64071559	0.88474905	-0.35912158	-0.42721436	0.9040625	0.12477912
127	0.504	-0.26056885	0.076440648	-0.19121049	-0.70126462	0.038351012	-0.064748958	-0.3952986	0.074456562	-0.21501367	-0.84749354	0.056989559	-0.038076411	-0.3858843	0.10375223	-0.13249489	-0.81853133	0.083754092	-0.12046684	-0.44883058	0.032879228	-0.16571337	-0.8925228	0.035015565	-0.090888877	-0.43331806	0.45971244	-0.24912103	-0.73186514	0.4447268	0.014023925	-0.41802173	0.44685987	-0.12990665	-0.71416591	0.44640388	-0.11532498	-0.56395916	0.82883971	-0.30914362	-0.64972285	0.85174411	0.068594849	-0.52665555	0.93977374	-0.23186171	-0.5557723	0.94010741	0.0077899868	-0.73492908	0.95647667	-0.14218433	-0.59744547	1.4164093	-0.25577078	-0.61236136	1.3981817	0.066787459	-0.68939931	1.4351897	-0.10074329	-0.73690335	1.1069365	-0.33554671	-0.62899576	1.0424162	0.13608072	-0.63797555	0.88328815	-0.35918762	-0.41850842	0.9043607	0.12334023
128	0.508	-0.24272434	0.079718523	-0.18868113	-0.70125385	0.038308118	-0.064769766	-0.37726517	0.074039713	-0.21346255	-0.84742871	0.057161694	-0.038209079	-0.36891626	0.10399368	-0.13104526	-0.81836653	0.083771266	-0.12075795	-0.42962902	0.031294386	-0.16449486	-0.89250094	0.035217714	-0.091076449	-0.4267036	0.45821346	-0.24880263	-0.72939697	0.44411917	0.013953908	-0.41165879	0.44559232	-0.12953141	-0.7115517	0.44579327	-0.115459	-0.55759721	0.82771711	-0.30907013	-0.64463919	0.85054014	0.068594043	-0.52016175	0.93850054	-0.23166098	-0.5504661	0.93873638	0.0081145957	-0.72880208	0.95502945	-0.14190151	-0.59160907	1.4148737	-0.2554053	-0.60642268	1.3966184	0.067198932	-0.68329519	1.433765	-0.10032916	-0.73250175	1.1060421	-0.33503676	-0.62153209	1.0405622	0.13678443	-0.63518407	0.88180264	-0.35923512	-0.40990334	0.90461466	0.12185075
129	0.512	-0.22527191	0.083336479	-0.1861714	-0.70124145	0.038283591	-0.064780991	-0.35951049	0.073916087	-0.21199453	-0.84739797	0.057343239	-0.038336187	-0.35228212	0.10448332	-0.12979116	-0.81816851	0.083811532	-0.1209825	-0.41079892	0.029992724	-0.16325913	-0.89248014	0.035443178	-0.091243461	-0.42007472	0.45665372	-0.24853172	-0.72696438	0.44344044	0.013844789	-0.40532581	0.44421593	-0.12911713	-0.70893987	0.44514342	-0.11560438	-0.55120196	0.82654423	-0.30900026	-0.63958753	0.84932778	0.068634737	-0.5136329	0.93717427	-0.2314484	-0.54513688	0.9373399	0.0084047945	-0.72285139	0.95373825	-0.14161599	-0.58575796	1.4132978	-0.25505569	-0.60046709	1.3950057	0.067605631	-0.67738877	1.4323007	-0.099934038	-0.72817066	1.1051008	-0.334512	-0.61408538	1.0386753	0.1374481	-0.63234025	0.88030098	-0.35927012	-0.4013893	0.90483676	0.12034134
130	0.516	-0.20824866	0.087297633	-0.18367617	-0.70124023	0.038258623	-0.064787302	-0.34203455	0.07409392	-0.21062335	-0.84737149	0.05752774	-0.038455156	-0.33605338	0.10519849	-0.1287281	-0.81794747	0.083870442	-0.12115441	-0.39230907	0.028892799	-0.16214438	-0.89245726	0.035701798	-0.091399303	-0.41340048	0.45505016	-0.2482767	-0.72441007	0.44274029	0.013726927	-0.39904603	0.44274297	-0.12866918	-0.70626496	0.44445059	-0.11575037	-0.54475703	0.82532255	-0.30893166	-0.63454286	0.84810067	0.068686865	-0.5071069	0.93580418	-0.2312188	-0.53979559	0.93592007	0.0086727457	-0.71679264	0.95258691	-0.1413538	-0.57989492	1.4116785	-0.25471922	-0.59450269	1.393348	0.068006671	-0.67167388	1.4307842	-0.099547159	-0.72373667	1.1041214	-0.33391392	-0.60663681	1.0367542	0.13803773	-0.62942877	0.87878203	-0.35929192	-0.39292125	0.90503771	0.11886244
131	0.52	-0.19169534	0.091536965	-0.18120238	-0.70124855	0.038231359	-0.064780183	-0.32487098	0.074561133	-0.20935969	-0.84729656	0.05770807	-0.038577968	-0.32030232	0.10608398	-0.12779833	-0.81771448	0.08393913	-0.12129948	-0.37418235	0.028006416	-0.16126119	-0.89242834	0.035997801	-0.091554601	-0.40669245	0.4534191	-0.24801432	-0.72164204	0.44205553	0.013623391	-0.3928073	0.44119542	-0.12817475	-0.70336106	0.44375904	-0.11585346	-0.53825995	0.82404306	-0.30884775	-0.62948527	0.84685169	0.068723499	-0.50057262	0.9343967	-0.23096218	-0.53444976	0.93447649	0.0089325293	-0.71014129	0.9513049	-0.14150539	-0.57401364	1.4100174	-0.25439699	-0.58853573	1.3916495	0.068399129	-0.66600414	1.4292176	-0.099180899	-0.71918151	1.1031062	-0.33326809	-0.59918225	1.0347993	0.13854886	-0.62641709	0.87724309	-0.35929542	-0.38444833	0.9052159	0.11745046
132	0.524	-0.17564617	0.09592626	-0.17877792	-0.70125703	0.038209662	-0.064742216	-0.30808815	0.07527546	-0.2082088	-0.84711817	0.057888232	-0.038735319	-0.30507792	0.10704844	-0.12692651	-0.81747162	0.08401185	-0.12143437	-0.35647622	0.027380641	-0.16060413	-0.89239255	0.036324263	-0.091712572	-0.39996072	0.45178449	-0.24772207	-0.71868726	0.44138654	0.013533975	-0.38657945	0.43959421	-0.12761628	-0.70006717	0.4431204	-0.11586333	-0.53171251	0.82269605	-0.30872929	-0.62441371	0.8455853	0.068735917	-0.49400449	0.93294985	-0.23067203	-0.52909632	0.93300623	0.0091921411	-0.70284686	0.94965865	-0.14219225	-0.56812104	1.408319	-0.25409068	-0.5825695	1.3899104	0.068779819	-0.66027147	1.4276118	-0.098844597	-0.71456226	1.1020497	-0.33260945	-0.59172944	1.0328159	0.13899287	-0.62329664	0.87568584	-0.35928863	-0.37594722	0.90536582	0.11611581
133	0.528	-0.16011733	0.1003088	-0.17643922	-0.70126027	0.038197323	-0.064661147	-0.291745	0.076183064	-0.20717922	-0.84682185	0.058085567	-0.038962266	-0.29036484	0.10803686	-0.12609368	-0.81721673	0.084084541	-0.12156926	-0.33925367	0.027027246	-0.16011339	-0.89235211	0.036669799	-0.091865888	-0.39318845	0.45017772	-0.24737318	-0.71560552	0.44071907	0.01344758	-0.38035631	0.43795282	-0.1269935	-0.69640912	0.44253653	-0.11578074	-0.52511913	0.82127566	-0.3085637	-0.61934676	0.84430936	0.068742082	-0.48739784	0.93146073	-0.23035178	-0.52373166	0.93150808	0.0094572998	-0.69602873	0.9479914	-0.14238192	-0.56223846	1.4065869	-0.25379886	-0.57660051	1.3881302	0.069145424	-0.65446015	1.4259752	-0.098536785	-0.70995052	1.1009422	-0.33196037	-0.58428705	1.0308098	0.13937644	-0.62011738	0.87411573	-0.35930874	-0.3674309	0.90548481	0.11484768
